<svg xmlns="http://www.w3.org/2000/svg"  viewBox="0 0 48 48" width="48px" height="48px"><path fill="#fcbf95" stroke="#010101" stroke-miterlimit="10" d="M24,9.5C13.799,9.5,5.5,17.351,5.5,27 c0,2.845,0.721,5.533,2,7.91c0.391,0.727,0.509,1.425,1,2.09c0.253,0.342,1.222,1.676,1.5,2c1.945,2.271,2.6,2.375,5.5,3.5 c2.16,0.838,6.024,2,8.5,2c2.286,0,4.477-0.394,6.5-1.115c0.511-0.182,2.511-1.163,3-1.385c2.884-1.314,3.855-2.537,5.675-5 c0.357-0.483,1.021-1.984,1.325-2.5c1.486-2.518,2-4.417,2-7.5C42.5,17.351,34.201,9.5,24,9.5z"/><path fill="#d6e5e5" d="M19.501,19.459c-0.092,0-0.184,0.004-0.277,0.009c-1.613,0.109-3.65,1.267-4.724,2.804 c-0.716,1.024-0.726,2.149-0.916,3.487c-0.276,1.943,0.136,3.8,1.133,5.094c0.862,1.119,2.074,1.694,3.456,1.644 c1.518-0.066,2.779-0.346,3.827-1.612c0.321-0.388,1.252-1.69,1.5-2.153c0.633-1.183,0.505-2.247,0.5-3.714l0,0 c-0.006-1.681-0.539-3.176-1.501-4.212C21.686,19.931,20.631,19.459,19.501,19.459z"/><path fill="#d6e5e5" d="M24,25.014c-0.008,2.404,0.493,4.467,2,5.855c0.95,0.875,2.601,1.575,3.827,1.628 c1.38,0.051,2.31,0.035,3.173-1.084c0.996-1.294,1.692-3.712,1.416-5.656c-0.189-1.328-0.693-2.565-1.4-3.584 c-0.437-0.63-0.451-1.195-1.016-1.63c-0.826-0.636-2.262-1.014-3.224-1.079c-0.621-0.039-2.221,0.309-2.776,0.535 c-0.553,0.226-0.562,0.615-1,1.087C24.038,22.121,24.006,23.333,24,25.014L24,25.014z"/><path fill="#6fc549" stroke="#010101" stroke-miterlimit="10" d="M5.5,19.5h37c0.354-0.351-0.5-2.483-0.5-2.98 c0-1.49,0.5-3.973,0.5-5.463c0-0.869,0-2.111,0-2.98c0-0.945,0.118-1.856-0.5-2.483C41.364,4.948,39.978,4.6,39,4.6 c-1.375,0-4.144-0.225-5.5,0c-3,0.497-4.5,0-6,0c-0.375,0-1.125,0-1.5,0c-2.75,0-7.5,0.497-11,0c-0.742-0.105-1,0.497-3,0 c-0.728-0.181-2.25,0-3,0c-2.5,0-3.5,1.56-3.5,3.477c0,1.863,0.198,5.598,0,7.45C5.394,16.514,4.793,18.798,5.5,19.5z"/><path fill="#6fc549" d="M40.153,25.066c0.176,0.667,0.375,1.313,0.592,1.934c0.891,2.553,1.127,4.172,2.255,5.5 c1.217,1.434,3.316,2.446,3.934,1.587c0.654-0.909,0.813-3.317,0.067-6.494c-0.167-0.711-1.339-3.286-1.5-4.093 C45,21,44.173,20.388,43,19.018c-0.833-0.974-1.621-1.518-2.209-1.518c-0.269,0-0.484,0.117-0.678,0.369 c-0.44,0.572-0.737,0.828-0.613,2.631C39.57,21.521,39.797,23.718,40.153,25.066L40.153,25.066z"/><path fill="#6fc549" d="M7.208,17.5c-0.584,0-1.365,0.538-2.193,1.502c-0.668,0.778-0.867,0.73-1.515,2.003 c-0.493,0.968-1.599,2.812-2,4.005c-0.313,0.931-0.413,2.173-0.592,3.004c-0.64,2.979-0.467,5.224,0.158,6.095 C1.59,34.839,2.994,34.494,4,33.52c0.815-0.789,0.698-0.421,1.5-2.003c0.453-0.894,1.125-2.431,1.5-3.504 c0.217-0.622,0.299-1.342,0.5-2.003c0.115-0.379,0.387-1.123,0.5-1.502c0.335-1.125,0.331-1.597,0.424-2.503 c0.056-0.546,0.082-1.548,0.076-2.003c-0.017-1.273-0.259-1.674-0.613-2.134C7.692,17.617,7.477,17.5,7.208,17.5z"/><path fill="#2b8c5e" d="M24.11,19.411c8.143,0,13.582,1.38,15.39,1.917c0,0,0-3.403,0-4.538c0-0.262,0-0.786,0-1.048 c0-0.262,0-0.786,0-1.048c0-0.917,0-3.669,0-3.669S38.135,10.5,37.514,10.5c-0.496,0-4.964,0.524-5.461,0.524 c-4.096,0-7.819-0.524-11.915-0.524c-0.372,0-3.599,0.524-3.972,0.524c-0.745,0-2.73,0-3.475,0c-1.365,0-3.972,0-3.972,0 c0-0.299-0.496,1.048,0,3.145c0.12,0.509-0.157,1.6,0,2.097C9.217,17.839,8.5,21.5,8.5,21.5 C10.308,20.963,15.967,19.411,24.11,19.411z"/><g><path fill="#010101" d="M18.015,33c-1.471,0-2.776-0.649-3.694-1.842c-1.077-1.4-1.526-3.394-1.231-5.469 c0.033-0.234,0.062-0.461,0.088-0.682c0.13-1.068,0.253-2.077,0.913-3.021c1.136-1.625,3.281-2.893,5.101-3.017 c1.421-0.088,2.699,0.446,3.675,1.496c1.048,1.128,1.629,2.744,1.635,4.55l0.007,0.612c0.02,1.189,0.036,2.216-0.566,3.341 c-0.279,0.522-1.238,1.853-1.556,2.236c-1.217,1.469-2.733,1.729-4.19,1.792C18.134,32.999,18.074,33,18.015,33z M19.501,19.959 c-0.081,0-0.163,0.003-0.245,0.008c-1.516,0.103-3.385,1.217-4.346,2.592c-0.518,0.74-0.616,1.547-0.74,2.568 c-0.028,0.228-0.057,0.462-0.091,0.702c-0.258,1.811,0.119,3.53,1.034,4.718c0.764,0.992,1.813,1.49,3.042,1.45 c1.454-0.063,2.542-0.324,3.46-1.431c0.313-0.379,1.222-1.655,1.444-2.071c0.479-0.896,0.467-1.716,0.448-2.852L23.5,25.019 c-0.006-1.554-0.491-2.93-1.367-3.873C21.422,20.38,20.487,19.959,19.501,19.959z"/><path fill="#010101" d="M30.51,33c-0.231,0-0.465,0.009-0.701,0c-1.361-0.059-3.104-0.803-4.147-1.764 c-1.465-1.348-2.172-3.384-2.161-6.224c0.006-1.641,0.011-3.058,1.134-4.268c0.137-0.147,0.223-0.286,0.302-0.411 c0.178-0.279,0.379-0.596,0.876-0.798c0.604-0.247,2.284-0.617,2.995-0.572c1.038,0.07,2.573,0.47,3.498,1.182 c0.443,0.341,0.627,0.751,0.79,1.114c0.096,0.215,0.188,0.418,0.333,0.628c0.776,1.121,1.29,2.434,1.483,3.799 c0.278,1.956-0.373,4.548-1.515,6.032C32.531,32.839,31.551,33,30.51,33z M28.663,19.958c-0.57,0-1.969,0.295-2.474,0.502 c-0.202,0.083-0.263,0.178-0.409,0.409c-0.107,0.169-0.229,0.355-0.414,0.556c-0.817,0.88-0.86,1.887-0.866,3.591l0,0 c-0.01,2.543,0.592,4.337,1.839,5.485c0.858,0.791,2.4,1.448,3.51,1.496c1.316,0.046,2.047,0.031,2.755-0.89 c0.858-1.114,1.586-3.395,1.317-5.281c-0.172-1.212-0.627-2.377-1.315-3.37c-0.198-0.286-0.318-0.553-0.424-0.789 c-0.141-0.315-0.243-0.543-0.486-0.73c-0.719-0.553-2.058-0.916-2.954-0.977C28.718,19.959,28.691,19.958,28.663,19.958z"/><path fill="#010101" d="M46.217,34.903c-1.05,0-2.58-0.88-3.598-2.079c-0.888-1.045-1.264-2.256-1.739-3.789 c-0.175-0.563-0.367-1.183-0.606-1.87c-0.226-0.644-0.429-1.307-0.604-1.971l0,0c-0.371-1.408-0.6-3.663-0.668-4.659 c-0.123-1.8,0.149-2.244,0.642-2.875l0.074-0.096C40.005,17.19,40.366,17,40.791,17c0.942,0,1.928,0.921,2.589,1.693 c0.163,0.19,0.319,0.366,0.469,0.534c0.941,1.058,1.686,1.894,2.142,4.175c0.078,0.39,0.462,1.348,0.801,2.192 c0.327,0.816,0.61,1.521,0.695,1.885c0.731,3.113,0.675,5.757-0.146,6.9c-0.163,0.226-0.477,0.5-1.051,0.522 C46.266,34.902,46.241,34.903,46.217,34.903z M40.636,24.938c0.17,0.64,0.365,1.278,0.581,1.897c0.245,0.7,0.44,1.33,0.618,1.903 c0.459,1.479,0.791,2.549,1.546,3.438c0.904,1.065,2.216,1.748,2.868,1.726c0.207-0.008,0.261-0.083,0.278-0.107 c0.514-0.714,0.729-2.924-0.014-6.087c-0.068-0.291-0.364-1.028-0.65-1.741c-0.39-0.971-0.758-1.888-0.854-2.369 c-0.403-2.015-1.002-2.688-1.908-3.707c-0.153-0.172-0.314-0.353-0.481-0.548C41.772,18.353,41.12,18,40.791,18 c-0.078,0-0.158,0.013-0.281,0.173l-0.079,0.102c-0.345,0.442-0.534,0.686-0.432,2.191C40.065,21.429,40.283,23.603,40.636,24.938 L40.636,24.938z"/><path fill="#010101" d="M1.939,35c-0.062,0-0.124-0.003-0.185-0.008c-0.469-0.042-0.848-0.247-1.095-0.593 c-0.776-1.081-0.868-3.568-0.241-6.491c0.062-0.285,0.113-0.62,0.168-0.973c0.104-0.676,0.224-1.442,0.439-2.085 c0.305-0.908,0.977-2.136,1.518-3.123c0.197-0.361,0.377-0.688,0.511-0.95c0.497-0.975,0.772-1.254,1.122-1.608 c0.13-0.132,0.275-0.28,0.459-0.493C5.293,17.912,6.272,17,7.208,17c0.426,0,0.787,0.19,1.074,0.565 c0.395,0.514,0.698,1.02,0.717,2.432c0.006,0.481-0.021,1.498-0.078,2.06l-0.04,0.422c-0.061,0.665-0.109,1.19-0.402,2.173 c-0.061,0.201-0.164,0.503-0.267,0.801c-0.091,0.264-0.181,0.525-0.234,0.703c-0.087,0.288-0.15,0.588-0.214,0.885 C7.683,27.419,7.6,27.81,7.471,28.178c-0.388,1.113-1.08,2.688-1.525,3.566c-0.619,1.222-0.726,1.359-1.179,1.753 c-0.106,0.093-0.239,0.208-0.419,0.382C3.621,34.583,2.716,35,1.939,35z M7.208,18c-0.325,0-0.973,0.349-1.814,1.328 c-0.201,0.234-0.362,0.398-0.505,0.543c-0.322,0.326-0.517,0.523-0.943,1.36c-0.138,0.27-0.321,0.605-0.524,0.977 c-0.521,0.952-1.171,2.137-1.447,2.96c-0.188,0.562-0.3,1.284-0.398,1.92c-0.059,0.375-0.113,0.729-0.178,1.03 c-0.639,2.974-0.423,5.005,0.075,5.698c0.027,0.039,0.111,0.156,0.372,0.18c0.439,0.038,1.157-0.205,1.808-0.835 c0.197-0.19,0.342-0.316,0.459-0.418c0.321-0.279,0.37-0.322,0.941-1.451c0.431-0.849,1.1-2.369,1.475-3.443 c0.107-0.309,0.181-0.652,0.258-1.016c0.069-0.325,0.14-0.653,0.235-0.967c0.057-0.188,0.15-0.461,0.246-0.738 c0.098-0.284,0.196-0.57,0.253-0.762c0.266-0.888,0.306-1.322,0.365-1.979l0.042-0.432c0.053-0.52,0.078-1.5,0.072-1.946 c-0.016-1.192-0.233-1.476-0.51-1.835C7.366,18.013,7.286,18,7.208,18z"/><path fill="#010101" d="M24.177,40c-1.736,0-2.96-1.082-3.011-1.128c-0.205-0.185-0.222-0.499-0.038-0.705 c0.184-0.205,0.497-0.225,0.705-0.041c0.01,0.01,1.001,0.874,2.344,0.874c1.518,0,1.983-0.367,1.988-0.371 c0.206-0.169,0.518-0.153,0.696,0.043c0.179,0.198,0.181,0.492-0.008,0.681C26.745,39.461,26.109,40,24.177,40z"/><path fill="#010101" d="M8.5,22c-0.123,0-0.243-0.045-0.336-0.13c-0.13-0.118-0.188-0.294-0.154-0.466 c0.192-0.984,0.609-3.798,0.234-4.987c-0.112-0.355-0.072-0.813-0.03-1.297c0.027-0.315,0.059-0.672,0.021-0.835 C7.836,12.6,7.99,10.919,8.389,10.597c0.143-0.117,0.348-0.146,0.521-0.072h7.257c0.165-0.002,1.177-0.149,1.916-0.257 C19.329,10.085,19.938,10,20.139,10c2.064,0,4.061,0.134,5.991,0.263c1.914,0.128,3.893,0.261,5.924,0.261 c0.222,0,1.582-0.144,2.676-0.259C36.291,10.1,37.258,10,37.515,10c0.692,0,2.016,0.5,2.165,0.558 c0.192,0.074,0.32,0.26,0.32,0.467v10.304c0,0.158-0.074,0.306-0.201,0.401c-0.125,0.094-0.289,0.124-0.441,0.079 c-1.918-0.57-7.244-1.896-15.247-1.896c-7.403,0-12.869,1.295-15.468,2.068C8.596,21.993,8.548,22,8.5,22z M9.063,11.524 c-0.075,0.447-0.136,1.35,0.144,2.53c0.076,0.32,0.04,0.725,0.003,1.152c-0.027,0.313-0.065,0.743-0.013,0.909 c0.385,1.219,0.116,3.482-0.07,4.686c2.881-0.791,8.117-1.889,14.983-1.889c7.372,0,12.528,1.113,14.89,1.755v-9.292 C38.494,11.198,37.825,11,37.515,11c-0.223,0-1.585,0.144-2.68,0.26c-1.56,0.165-2.525,0.265-2.781,0.265 c-2.064,0-4.061-0.134-5.991-0.263C24.148,11.133,22.17,11,20.139,11c-0.165,0.002-1.175,0.149-1.911,0.257 c-1.249,0.182-1.859,0.268-2.061,0.268L9.063,11.524L9.063,11.524z"/><circle cx="21" cy="26" r="1" fill="#010101"/><circle cx="27" cy="26" r="1" fill="#010101"/></g></svg>